<svg xmlns="http://www.w3.org/2000/svg" fill="none" viewBox="0 0 121 29"><path fill="#000" d="M37.676 9.578h1.586l7.805 18.532h-2.148l-2.414-5.616H34.25l-2.513 5.616h-2.175l8.113-18.532ZM41.634 20.5l-3.144-7.752-3.369 7.752h6.513ZM56.88 13.86l-6.162 14.245h-1.615L43.25 13.859h2.204l4.492 11.516 4.744-11.516h2.19ZM67.857 26.987c-1.165.934-2.583 1.4-4.253 1.4-1.362 0-2.555-.31-3.608-.933a6.312 6.312 0 0 1-2.442-2.603c-.576-1.117-.87-2.376-.87-3.805 0-1.542.28-2.872.856-3.99.561-1.117 1.361-1.98 2.386-2.588 1.025-.594 2.218-.905 3.566-.905 1.263 0 2.428.31 3.48.919 1.054.608 1.896 1.485 2.528 2.617.617 1.132.94 2.433.94 3.919l-11.707.028c0 1.09.21 2.037.646 2.872.42.82 1.01 1.457 1.754 1.895a4.806 4.806 0 0 0 2.485.665c1.165 0 2.134-.297 2.892-.877.758-.58 1.305-1.386 1.614-2.419h2.035c-.379 1.599-1.15 2.872-2.302 3.805Zm.393-7.44c-.21-1.26-.73-2.236-1.572-2.957-.842-.722-1.909-1.075-3.186-1.075-1.222 0-2.246.367-3.06 1.089-.815.736-1.334 1.712-1.53 2.942h9.348ZM72.04 13.861h2.034v2.759a5.016 5.016 0 0 1 1.853-2.221c.828-.538 1.825-.82 2.99-.82 1.769 0 3.145.593 4.127 1.782.983 1.188 1.474 2.871 1.474 5.036v7.695h-2.035v-7.695c0-1.698-.351-2.943-1.04-3.735-.7-.792-1.712-1.174-3.045-1.174-1.277 0-2.33.48-3.13 1.429-.815.962-1.208 2.263-1.208 3.904l.028 7.271h-2.035v-14.23h-.014ZM87.831 27.91a.943.943 0 0 1-.42-.58c-.07-.254-.099-.636-.099-1.131V15.773h-2.007v-1.91h2.007v-4.3h2.035v4.3h3.397v1.91h-3.397v10.426h5.124v1.91h-5.615c-.463 0-.814-.057-1.025-.199ZM106.149 27.836c-.183-.184-.267-.552-.267-1.103V25.36a5.236 5.236 0 0 1-1.867 2.221c-.814.538-1.797.82-2.92.82-1.782 0-3.158-.622-4.112-1.88-.955-1.26-1.432-3.042-1.432-5.362v-7.3h2.035v7.272c0 1.853.323 3.21.983 4.06.66.848 1.642 1.273 2.962 1.273 1.305 0 2.344-.481 3.144-1.429.8-.962 1.193-2.25 1.193-3.904v-7.272h2.035v12.336h1.109v1.91h-1.698c-.604 0-.997-.085-1.165-.269ZM113.784 26.043c.618.31 1.446.466 2.471.466.87 0 1.558-.155 2.035-.466.477-.312.73-.835.73-1.585 0-.65-.267-1.16-.8-1.513-.533-.354-1.376-.68-2.555-.977-1.6-.396-2.891-.92-3.888-1.584-.997-.665-1.488-1.613-1.488-2.858 0-1.372.477-2.362 1.418-2.97.954-.623 2.105-.934 3.453-.962 1.221 0 2.372.34 3.439 1.004 1.067.68 1.797 1.797 2.19 3.367h-2.036c-.224-.82-.631-1.443-1.235-1.853-.603-.41-1.375-.623-2.302-.623-.898 0-1.614.156-2.162.481-.547.326-.828.835-.828 1.542.014 1.203 1.32 2.094 3.903 2.702 1.53.382 2.709.877 3.551 1.486.842.622 1.263 1.542 1.263 2.758 0 1.316-.435 2.292-1.319 2.943-.885.65-1.965.976-3.243.976-3.425 0-5.376-1.344-5.881-4.018h2.063c.197.82.59 1.372 1.221 1.683Z"/><path fill="url(#a)" d="M25.24 28.108h-6.583a.928.928 0 0 1-.857-.608c-1.417-4.06-2.821-8.12-4.239-12.152-.463-1.429-.954-2.872-1.432-4.329-.098-.297-.196-.608-.308-.905a1.904 1.904 0 0 1-.099-.255c-.519-1.514-1.024-2.999-1.558-4.484a1.236 1.236 0 0 1 .548-1.486L15.765.961l.912 2.207.113.283c.014.014.014.028.014.042l.73 2.15 3.958 11.544h-.014a2476.81 2476.81 0 0 1 3.762 10.92Z"/><path fill="url(#b)" d="M17.56 5.64a.11.11 0 0 0-.056-.056c-.575-.721-1.656-.608-2.428-.24a3.433 3.433 0 0 0-1.727 2.008l-1.22 3.664-5.18 15.462a3.611 3.611 0 0 1-3.426 2.476c-1.979 0-3.453-1.627-3.453-3.48 0-.368.056-.75.183-1.132L8.436.11h7.216l1.038 3.056.113.283c.014.014.014.028.014.042l.744 2.15Z"/><defs><linearGradient id="a" x1="7.81" x2="28.664" y1="11.119" y2="18.651" gradientUnits="userSpaceOnUse"><stop stop-color="#0E0151"/><stop offset=".061" stop-color="#19016F"/><stop offset=".152" stop-color="#270195"/><stop offset=".25" stop-color="#3300B6"/><stop offset=".355" stop-color="#3C00D1"/><stop offset=".469" stop-color="#4400E5"/><stop offset=".597" stop-color="#4900F4"/><stop offset=".751" stop-color="#4C00FC"/><stop offset="1" stop-color="#4D00FF"/></linearGradient><linearGradient id="b" x1="-1.084" x2="16.487" y1="26.539" y2=".691" gradientUnits="userSpaceOnUse"><stop stop-color="#0E0151"/><stop offset=".101" stop-color="#1B0173"/><stop offset=".245" stop-color="#2C019E"/><stop offset=".393" stop-color="#3900C1"/><stop offset=".541" stop-color="#4400DC"/><stop offset=".69" stop-color="#4B00F0"/><stop offset=".842" stop-color="#5000FB"/><stop offset="1" stop-color="#5100FF"/></linearGradient></defs></svg>