<svg xmlns="http://www.w3.org/2000/svg" width="380" height="85" fill="none"><script/><script/><path fill="#0FD297" d="M47.358 49.992c1.041 1.417 2.051 2.814 3.21 4.14 2.088 2.39 4.475 4.35 7.579 5.288 1.704.515 3.455.745 5.219.908.139.013.243.027.323.18.922 1.759 1.431 3.604 1.192 5.608-.019.156-.044.312-.073.505a.05.05 0 0 1-.084.028 12.583 12.583 0 0 0-1.252-1.11c-1.455-1.096-3.056-1.841-4.901-1.915-2.456-.099-4.564 1.361-5.428 3.71-.703 1.913-.673 3.853-.205 5.808.023.095.047.19.064.287.008.045.002.102-.034.092-.724-.212-1.373-.577-1.988-1-1.132-.781-2.008-1.801-2.738-2.959-.12-.191-.044-.321.026-.474.6-1.308 1.13-2.64 1.534-4.024.816-2.797.692-5.585-.038-8.373-.572-2.183-1.458-4.248-2.364-6.306-.049-.112-.093-.226-.139-.34-.033-.082.059-.117.097-.053Z"/><path fill="#0FD297" d="M43.162 75.646a.139.139 0 0 1-.261.002c-.953-2.626-2.25-4.987-3.328-7.445-.711-1.621-1.379-3.258-1.626-5.03a.139.139 0 0 1 .195-.145c3.253 1.436 6.484 1.436 9.733-.017a.139.139 0 0 1 .193.147c-.179 1.31-.573 2.477-1.022 3.629-.845 2.164-1.922 4.224-2.867 6.342a33.719 33.719 0 0 0-1.017 2.517ZM42.819 45.662a.173.173 0 0 1 .321.003c.132.337.26.668.4.993.934 2.162 1.882 4.319 2.808 6.484.279.653.493 1.334.757 1.995.094.235.051.334-.188.424-2.615.995-5.226 1.001-7.845.012-.247-.093-.26-.197-.182-.428.801-2.363 1.875-4.613 2.855-6.901.368-.857.716-1.722 1.074-2.582ZM66.199 60.581a.1.1 0 0 1 .1-.138c1.747.118 3.441.291 5.118.625.225.045.22.188.244.34a19.316 19.316 0 0 1-.203 7.291c-.636 2.899-1.84 5.529-3.857 7.73-3.082 3.363-6.967 4.811-11.475 4.575-4.123-.216-7.759-1.745-10.969-4.321-.159-.127-.194-.232-.127-.43.542-1.613 1.249-3.154 1.993-4.681l.001-.001c.032-.064.122-.068.167-.011 3.751 4.767 9.956 6.049 14.826 3 4.449-2.785 6.392-8.367 4.182-13.979Z"/><path fill="#0FD297" d="M38.702 50.085c-.707 1.611-1.411 3.183-1.981 4.85-1.026 3.004-1.53 6.051-.79 9.208.406 1.733 1.082 3.365 1.823 4.974.058.127.098.224.006.37-1.063 1.678-2.405 3.041-4.261 3.836-.145.062-.292.118-.474.189a.05.05 0 0 1-.066-.059c.148-.569.269-1.099.335-1.64.221-1.808.066-3.567-.792-5.202-1.143-2.176-3.461-3.273-5.927-2.845-2.008.348-3.673 1.343-5.132 2.727-.071.067-.142.136-.216.199-.035.03-.087.053-.097.017-.179-.733-.187-1.478-.127-2.221.11-1.371.556-2.64 1.193-3.851.105-.2.256-.199.423-.214 1.432-.134 2.852-.341 4.252-.683 2.83-.692 5.183-2.193 7.232-4.22 1.605-1.587 2.95-3.387 4.279-5.2.072-.099.15-.193.225-.29.055-.072.131-.01.095.055Z"/><path fill="#0FD297" d="M14.387 59.278c-.128.023-.215-.126-.132-.225 1.798-2.138 3.194-4.442 4.784-6.605 1.048-1.426 2.132-2.823 3.543-3.923l.001-.001a.139.139 0 0 1 .222.096c.382 3.535 1.999 6.333 4.881 8.42a.14.14 0 0 1-.031.241c-1.224.5-2.431.742-3.654.929-2.297.35-4.619.447-6.926.688a34.69 34.69 0 0 0-2.688.38ZM40.183 43.989a.173.173 0 0 1 .158.279c-.226.283-.448.559-.66.843-1.405 1.89-2.799 3.789-4.212 5.674-.426.569-.909 1.094-1.349 1.653-.157.199-.263.211-.462.049-2.169-1.767-3.48-4.026-3.933-6.787-.043-.261.04-.324.279-.371 2.447-.488 4.932-.682 7.404-.978.927-.111 1.85-.242 2.775-.362ZM38.952 71.696a.101.101 0 0 1 .17.018c.772 1.572 1.469 3.126 2.018 4.745.074.218-.053.284-.173.382a19.314 19.314 0 0 1-6.416 3.47c-2.829.899-5.708 1.171-8.623.525-4.454-.987-7.65-3.628-9.7-7.65-1.874-3.678-2.368-7.592-1.743-11.66.031-.201.104-.284.309-.325 1.668-.336 3.356-.495 5.05-.614.071-.005.121.072.094.139-2.253 5.632-.261 11.647 4.814 14.34 4.639 2.458 10.445 1.35 14.2-3.37ZM38.631 35.008c-1.041-1.417-2.051-2.814-3.21-4.14-2.088-2.39-4.475-4.35-7.579-5.288-1.704-.515-3.455-.745-5.219-.908-.139-.013-.243-.027-.323-.18-.922-1.759-1.431-3.604-1.192-5.608.019-.156.044-.312.073-.505a.05.05 0 0 1 .084-.028c.419.412.817.783 1.252 1.11 1.455 1.096 3.056 1.841 4.901 1.915 2.456.099 4.564-1.361 5.428-3.71.703-1.913.673-3.853.205-5.808-.023-.095-.047-.19-.064-.287-.008-.045-.002-.102.034-.092.724.212 1.373.577 1.988 1 1.132.781 2.008 1.801 2.738 2.959.12.191.044.321-.026.474-.6 1.308-1.13 2.64-1.534 4.024-.816 2.797-.692 5.585.038 8.373.572 2.183 1.458 4.248 2.364 6.306.049.112.093.226.139.34.033.082-.059.117-.097.053Z"/><path fill="#0FD297" d="M42.827 9.354a.139.139 0 0 1 .261-.002c.953 2.626 2.25 4.987 3.328 7.445.711 1.621 1.379 3.258 1.626 5.03a.139.139 0 0 1-.195.145c-3.253-1.436-6.484-1.436-9.733.017a.139.139 0 0 1-.193-.147c.179-1.31.573-2.477 1.022-3.629.845-2.164 1.922-4.224 2.867-6.342.361-.805.697-1.619 1.017-2.517ZM43.17 39.338a.173.173 0 0 1-.321-.003c-.132-.337-.26-.668-.4-.993-.934-2.162-1.882-4.319-2.808-6.484-.279-.653-.493-1.334-.757-1.995-.094-.235-.051-.334.188-.424 2.615-.995 5.226-1.001 7.845-.012.247.093.26.197.182.428-.801 2.363-1.875 4.613-2.855 6.901-.368.857-.716 1.722-1.074 2.582ZM19.79 24.419a.1.1 0 0 1-.1.138c-1.747-.118-3.441-.291-5.118-.625-.225-.045-.22-.188-.244-.34a19.316 19.316 0 0 1 .203-7.291c.636-2.899 1.84-5.529 3.857-7.73 3.082-3.363 6.967-4.811 11.475-4.575 4.123.216 7.759 1.745 10.969 4.321.159.127.194.232.127.43-.542 1.613-1.249 3.154-1.993 4.681l-.001.001c-.032.064-.122.068-.167.011-3.751-4.767-9.956-6.049-14.826-3-4.449 2.785-6.392 8.367-4.182 13.979Z"/><path fill="#0FD297" d="M47.287 34.915c.707-1.611 1.411-3.183 1.981-4.85 1.026-3.004 1.53-6.051.79-9.208-.406-1.733-1.082-3.365-1.823-4.974-.058-.127-.098-.224-.006-.37 1.063-1.678 2.405-3.041 4.261-3.836.145-.062.292-.118.474-.189a.05.05 0 0 1 .066.059 12.506 12.506 0 0 0-.335 1.64c-.221 1.808-.066 3.567.792 5.202 1.143 2.176 3.461 3.273 5.927 2.845 2.008-.348 3.673-1.343 5.132-2.727.071-.067.142-.136.216-.199.035-.03.087-.053.097-.017.179.733.187 1.478.127 2.221-.11 1.371-.556 2.64-1.193 3.851-.105.2-.256.199-.423.214-1.432.134-2.852.341-4.252.683-2.83.692-5.183 2.193-7.232 4.22-1.605 1.587-2.95 3.387-4.279 5.2-.072.099-.15.193-.225.29-.055.072-.131.01-.095-.055Z"/><path fill="#0FD297" d="M71.602 25.722c.128-.023.215.126.132.225-1.798 2.138-3.194 4.442-4.784 6.605-1.048 1.426-2.132 2.823-3.543 3.923l-.001.001a.139.139 0 0 1-.222-.096c-.382-3.535-1.999-6.333-4.881-8.42a.14.14 0 0 1 .031-.241c1.224-.5 2.431-.742 3.654-.929 2.297-.35 4.619-.447 6.926-.688a34.69 34.69 0 0 0 2.688-.38ZM45.806 41.011a.173.173 0 0 1-.158-.279c.226-.283.448-.559.66-.843 1.405-1.89 2.799-3.789 4.212-5.674.426-.569.909-1.094 1.349-1.653.157-.199.263-.211.462-.049 2.169 1.767 3.48 4.026 3.933 6.787.043.261-.04.324-.279.371-2.447.488-4.932.682-7.404.978-.927.111-1.85.242-2.775.362ZM47.037 13.304a.101.101 0 0 1-.17-.018c-.772-1.572-1.469-3.126-2.018-4.745-.074-.218.053-.284.173-.382a19.314 19.314 0 0 1 6.416-3.47c2.829-.899 5.708-1.171 8.623-.525 4.454.987 7.65 3.628 9.7 7.65 1.874 3.678 2.368 7.592 1.743 11.66-.031.201-.104.284-.309.325-1.668.336-3.356.495-5.05.614-.071.005-.121-.072-.094-.139 2.253-5.632.261-11.647-4.814-14.34-4.639-2.458-10.445-1.35-14.2 3.37Z"/><path fill="#0FD297" d="M51.727 42.407c1.748-.193 3.462-.369 5.19-.71 3.114-.613 6.005-1.701 8.369-3.919 1.298-1.218 2.373-2.62 3.396-4.066.081-.114.145-.197.317-.19 1.984.082 3.837.562 5.453 1.772.126.094.248.194.401.316.032.025.021.076-.018.087-.566.156-1.086.316-1.588.529-1.677.712-3.123 1.726-4.109 3.287-1.313 2.077-1.104 4.633.499 6.556 1.305 1.565 3 2.51 4.927 3.081.094.028.188.055.28.088.043.015.089.049.063.076-.546.521-1.186.901-1.86 1.221-1.242.59-2.564.839-3.932.892-.226.009-.3-.122-.397-.259-.833-1.173-1.721-2.299-2.718-3.34-2.014-2.105-4.491-3.392-7.271-4.153-2.177-.596-4.408-.861-6.643-1.106-.122-.013-.242-.033-.364-.05-.084-.014-.069-.111.005-.112Z"/><path fill="#0FD297" d="M71.846 58.868a.139.139 0 0 1-.129.227c-2.751-.488-5.444-.545-8.112-.84-1.759-.195-3.511-.435-5.169-1.106l-.001-.001a.139.139 0 0 1-.027-.241c2.87-2.099 4.485-4.897 4.852-8.437a.139.139 0 0 1 .224-.094c1.045.81 1.859 1.734 2.631 2.7 1.452 1.814 2.697 3.776 4.059 5.654a34.485 34.485 0 0 0 1.672 2.138ZM45.708 44.173a.173.173 0 0 1 .163-.276c.358.054.708.109 1.06.15 2.34.272 4.681.529 7.02.811.705.085 1.402.24 2.106.342.251.036.314.123.274.375-.446 2.762-1.746 5.027-3.912 6.8-.204.167-.3.127-.461-.056-1.646-1.876-3.057-3.93-4.549-5.924-.56-.748-1.135-1.481-1.701-2.222ZM70.318 31.385a.101.101 0 0 1-.07-.156c.975-1.454 1.972-2.835 3.1-4.12.152-.173.273-.096.417-.041a19.318 19.318 0 0 1 6.213 3.821c2.193 2 3.868 4.358 4.766 7.206 1.372 4.351.683 8.44-1.775 12.226-2.248 3.462-5.391 5.847-9.226 7.339-.189.074-.298.052-.436-.105-1.125-1.276-2.107-2.659-3.057-4.066l-.001-.001c-.04-.06.003-.14.073-.15 6.004-.865 10.217-5.597 10.011-11.339-.187-5.248-4.05-9.722-10.015-10.614ZM34.373 42.542c-1.748.193-3.462.369-5.19.71-3.114.613-6.005 1.701-8.369 3.919-1.298 1.218-2.373 2.62-3.396 4.066-.081.114-.145.197-.317.19-1.984-.082-3.837-.562-5.453-1.772-.126-.094-.248-.194-.401-.316-.032-.025-.021-.076.018-.087a12.577 12.577 0 0 0 1.588-.529c1.677-.712 3.123-1.726 4.109-3.287 1.313-2.077 1.104-4.633-.499-6.556-1.305-1.565-3-2.51-4.927-3.081-.094-.028-.188-.055-.28-.088-.043-.015-.089-.049-.063-.076.546-.521 1.186-.901 1.86-1.221 1.242-.59 2.564-.839 3.932-.892.226-.009.3.122.397.259.833 1.173 1.721 2.299 2.718 3.34 2.014 2.105 4.491 3.392 7.271 4.153 2.177.596 4.408.861 6.643 1.106.122.013.242.033.364.05.084.013.069.11-.005.112Z"/><path fill="#0FD297" d="M14.254 26.08a.139.139 0 0 1 .129-.227c2.751.488 5.444.545 8.112.84 1.759.195 3.511.435 5.169 1.106l.001.001a.139.139 0 0 1 .027.241c-2.87 2.099-4.485 4.897-4.852 8.437a.139.139 0 0 1-.224.094c-1.045-.81-1.859-1.734-2.631-2.7-1.452-1.814-2.697-3.776-4.059-5.654a35.09 35.09 0 0 0-1.672-2.138ZM40.392 40.776a.173.173 0 0 1-.163.276c-.358-.054-.708-.109-1.06-.15-2.34-.272-4.681-.529-7.02-.811-.705-.085-1.402-.24-2.106-.342-.251-.036-.314-.123-.274-.375.446-2.762 1.746-5.027 3.912-6.8.204-.167.3-.127.461.056 1.646 1.876 3.057 3.93 4.549 5.924.56.747 1.135 1.481 1.701 2.222ZM15.782 53.564a.101.101 0 0 1 .07.156c-.975 1.454-1.972 2.835-3.1 4.12-.152.173-.273.096-.417.041a19.318 19.318 0 0 1-6.213-3.821c-2.193-2-3.868-4.358-4.766-7.206-1.372-4.351-.683-8.44 1.775-12.226 2.248-3.462 5.391-5.847 9.226-7.339.189-.074.298-.052.436.105 1.125 1.276 2.107 2.659 3.057 4.066l.001.001c.04.06-.003.14-.073.15-6.004.865-10.217 5.598-10.011 11.34.187 5.247 4.05 9.721 10.015 10.613ZM99.272 39.492c0-1.05-.56-1.541-1.54-1.541h-2.871V32.14h6.511c3.081 0 4.48 1.33 4.48 3.92v1.33c0 1.12-.07 2.03-.07 2.03h.14c1.681-4.13 6.581-8.121 12.111-8.121 6.021 0 9.451 2.73 10.641 8.051h.14c1.96-4.271 6.861-8.051 12.602-8.051 7.98 0 11.691 4.55 11.691 13.581v15.332c0 1.05.56 1.54 1.541 1.54h2.87v5.811h-6.721c-3.15 0-4.48-1.33-4.48-4.48v-16.73c0-4.971-.98-8.891-6.23-8.891-4.901 0-8.681 4.271-9.941 9.101a20.34 20.34 0 0 0-.56 4.83v16.172h-6.791V46.353c0-4.621-.7-8.891-6.091-8.891-5.181 0-8.821 4.34-10.151 9.38-.35 1.4-.49 2.94-.49 4.551v16.172h-6.791V39.492ZM181.104 45.512h1.541v-.35c0-6.23-2.311-8.471-7.841-8.471-1.681 0-5.811.42-5.811 2.73v2.03h-6.371v-3.5c0-5.811 8.821-6.65 12.251-6.65 11.481 0 14.562 6.021 14.562 13.861v15.052c0 1.05.56 1.54 1.54 1.54h2.871v5.811h-6.371c-3.15 0-4.41-1.54-4.41-4.061 0-1.19.14-2.1.14-2.1h-.14s-2.8 7-11.271 7c-6.09 0-12.041-3.71-12.041-10.781-.001-11.411 15.4-12.111 21.351-12.111Zm-7.841 17.432c5.741 0 9.451-6.021 9.451-11.271v-1.19h-1.75c-5.11 0-14.351.28-14.351 6.791 0 2.87 2.17 5.67 6.65 5.67ZM199.441 39.492c0-1.05-.56-1.541-1.54-1.541h-2.87V32.14h6.511c3.011 0 4.48 1.33 4.48 3.92v1.33c0 1.12-.14 2.03-.14 2.03h.14c1.4-3.08 5.601-8.121 13.302-8.121 8.4 0 12.181 4.55 12.181 13.581v15.332c0 1.05.561 1.54 1.54 1.54h2.871v5.811h-6.721c-3.15 0-4.48-1.33-4.48-4.48V46.422c0-4.97-.98-8.891-6.651-8.891-5.46 0-9.801 3.57-11.201 8.681-.489 1.4-.63 3.011-.63 4.761v16.592h-6.791V39.492h-.001ZM254.183 31.301c8.19 0 10.921 5.46 10.921 5.46h.141s-.141-1.05-.141-2.38V25.49c0-1.05-.56-1.541-1.54-1.541h-2.87v-5.811h6.721c3.15 0 4.48 1.33 4.48 4.48v37.594c0 1.05.56 1.54 1.54 1.54h2.87v5.811h-6.511c-3.08 0-4.34-1.4-4.34-3.78 0-1.05.069-1.82.069-1.82h-.14s-2.94 6.44-11.621 6.44c-9.591 0-15.612-7.561-15.612-18.552 0-11.269 6.652-18.55 16.033-18.55Zm11.13 18.481c0-6.3-3.29-12.601-10.081-12.601-5.53 0-10.15 4.621-10.15 12.671 0 7.701 4.13 12.671 10.011 12.671 5.25 0 10.22-3.71 10.22-12.741ZM300.103 45.512h1.54v-.35c0-6.23-2.31-8.471-7.841-8.471-1.68 0-5.811.42-5.811 2.73v2.03h-6.37v-3.5c0-5.811 8.82-6.65 12.251-6.65 11.481 0 14.562 6.021 14.562 13.861v15.052c0 1.05.56 1.54 1.54 1.54h2.87v5.811h-6.37c-3.15 0-4.411-1.54-4.411-4.061 0-1.19.141-2.1.141-2.1h-.141s-2.8 7-11.271 7c-6.091 0-12.042-3.71-12.042-10.781 0-11.411 15.402-12.111 21.353-12.111Zm-7.841 17.432c5.74 0 9.451-6.021 9.451-11.271v-1.19h-1.75c-5.11 0-14.352.28-14.352 6.791 0 2.87 2.17 5.67 6.651 5.67ZM318.3 25.49c0-1.05-.56-1.541-1.54-1.541h-2.87v-5.811h6.721c3.15 0 4.48 1.33 4.48 4.48v37.594c0 1.05.56 1.54 1.54 1.54h2.87v5.811h-6.721c-3.15 0-4.48-1.33-4.48-4.48V25.49ZM353.441 45.512h1.54v-.35c0-6.23-2.31-8.471-7.841-8.471-1.68 0-5.811.42-5.811 2.73v2.03h-6.37v-3.5c0-5.811 8.82-6.65 12.251-6.65 11.481 0 14.562 6.021 14.562 13.861v15.052c0 1.05.56 1.54 1.54 1.54h2.87v5.811h-6.37c-3.15 0-4.411-1.54-4.411-4.061 0-1.19.141-2.1.141-2.1h-.141s-2.8 7-11.271 7c-6.091 0-12.042-3.71-12.042-10.781.001-11.411 15.403-12.111 21.353-12.111Zm-7.84 17.432c5.741 0 9.451-6.021 9.451-11.271v-1.19h-1.75c-5.11 0-14.352.28-14.352 6.791 0 2.87 2.17 5.67 6.651 5.67Z"/></svg>