<svg width="100%" height="100%" viewBox="0 0 460 80" xmlns="http://www.w3.org/2000/svg" fill="none">
    <!-- First SVG (Icon) -->
    <g>
        <svg x="0" y="10" width="112" height="80" viewBox="0 0 112 80" fill="none" xmlns="http://www.w3.org/2000/svg">
            <path
                d="M56.1062 46.9031C85.8416 46.9031 109.947 36.896 109.947 24.5517C109.947 12.2073 85.8416 2.20325 56.1062 2.20325C52.7209 2.20325 49.41 2.33425 46.1974 2.58137C43.476 2.78979 40.8331 3.08753 38.2686 3.4746"
                stroke="currentColor" stroke-width="4" stroke-miterlimit="10"></path>
            <path
                d="M56.1062 62.3916C85.8416 62.3916 109.947 52.3875 109.947 40.0431C109.947 27.6988 85.8416 17.6858 56.1062 17.6858C52.7209 17.6858 49.41 17.8168 46.1974 18.0639C43.476 18.2743 40.8331 18.5671 38.2686 18.9423"
                stroke="currentColor" stroke-width="4" stroke-miterlimit="10"></path>
            <path
                d="M56.0465 17.7037C26.3112 17.7037 2.20605 27.7107 2.20605 40.0551C2.20605 52.3994 26.3231 62.4035 56.0465 62.4035C59.4318 62.4035 62.7427 62.2725 65.9553 62.0254C68.6767 61.817 71.3196 61.5242 73.8842 61.147"
                stroke="currentColor" stroke-width="4" stroke-miterlimit="10"></path>
            <path
                d="M56.0465 33.1922C26.3112 33.1922 2.20605 43.1992 2.20605 55.5436C2.20605 67.8879 26.3231 77.892 56.0465 77.892C59.4318 77.892 62.7427 77.764 65.9553 77.5168C68.6767 77.3045 71.3196 77.0067 73.8842 76.6236"
                stroke="currentColor" stroke-width="4" stroke-miterlimit="10"></path>
        </svg>
    </g>

    <!-- Padding between icon and text -->
    <g>
        <!-- Adjust padding by increasing x -->
        <svg x="135" y="20" width="307" height="43" viewBox="0 0 307 43" fill="none" xmlns="http://www.w3.org/2000/svg">
            <g clip-path="url(#clip0_2093_172)">
                <path
                    d="M44.5041 14.3381C44.5041 23.0196 37.7622 28.5638 27.307 28.5638H11.5404V41.4182H-0.00390625V0.856323H27.5359C38.1627 0.856323 44.5041 5.94087 44.5041 14.3381ZM32.3343 14.6242C32.3343 10.7393 29.5918 8.62618 24.7361 8.62618H11.5404V20.7939H24.6789C29.4793 20.7939 32.3343 18.5664 32.3343 14.6242Z"
                    fill="currentColor"></path>
                <path
                    d="M46.1653 27.1353C46.1653 17.8245 54.9631 11.7673 68.2634 11.7673C81.6328 11.7673 90.4306 17.8245 90.4306 27.1353C90.4306 36.4461 81.6406 42.5034 68.2634 42.5034C54.9611 42.5034 46.1653 36.4481 46.1653 27.1353ZM78.9573 27.1353C78.9573 22.0508 74.7291 18.7953 68.2733 18.7953C61.8747 18.7953 57.5912 22.0508 57.5912 27.1353C57.5912 32.2199 61.8747 35.4774 68.2733 35.4774C74.7271 35.4774 78.9553 32.2199 78.9553 27.1353H78.9573Z"
                    fill="currentColor"></path>
                <path d="M107.807 41.4182H96.7819V0H107.807V41.4182Z" fill="currentColor"></path>
                <path d="M117.463 12.8544H128.489V41.4182H117.463V12.8544Z" fill="currentColor"></path>
                <path
                    d="M148.655 12.8544V19.1958C150.77 14.3954 155.397 11.7673 161.51 11.7673C167.681 11.7673 172.136 14.3322 174.25 19.1958C176.992 14.3382 181.848 11.7673 188.132 11.7673C197.445 11.7673 202.535 17.1379 202.535 27.0209V41.4241H191.51V28.4494C191.51 22.7946 188.882 19.768 183.912 19.768C178.827 19.768 175.684 23.0827 175.684 28.5658V41.4182H164.716V28.5066C164.716 22.6802 162.202 19.766 157.118 19.766C151.976 19.766 148.89 23.136 148.89 28.842V41.4182H137.865V12.8544H148.655Z"
                    fill="currentColor"></path>
                <path
                    d="M250.522 29.5346H218.7C219.557 33.3623 223.556 35.5918 230.012 35.5918C234.747 35.5918 238.867 33.9917 240.98 31.3636L249.436 35.0196C245.437 39.8181 238.752 42.5034 229.554 42.5034C216.137 42.5034 208.073 36.8486 208.073 27.2498C208.073 17.4812 216.416 11.7673 229.268 11.7673C242.752 11.7673 250.522 17.8245 250.522 27.9364V29.5346ZM239.551 23.8226C239.439 20.2238 235.211 17.7061 229.213 17.7061C223.155 17.7061 219.328 20.1054 218.643 23.8226H239.551Z"
                    fill="currentColor"></path>
                <path
                    d="M255.036 27.015C255.036 17.5325 263.378 11.7614 277.089 11.7614C288.629 11.7614 296.342 15.7607 298.226 22.9031L286.571 24.3869C285.429 21.0169 282.001 19.0754 276.745 19.0754C270.404 19.0754 266.462 22.1021 266.462 26.9676C266.462 31.8825 270.576 35.0808 276.745 35.0808C282.116 35.0808 285.486 33.2537 286.628 29.7674L298.226 31.4247C296.399 38.2811 288.286 42.5073 276.974 42.5073C263.49 42.5034 255.036 36.5053 255.036 27.015Z"
                    fill="currentColor"></path>
                <path d="M301.872 7.15233H300.388V9.91459H299.702V7.15233H298.218V6.5979H301.872V7.15233Z"
                    fill="currentColor"></path>
                <path
                    d="M302.409 6.5979H303.45L304.565 8.91425C304.611 9.01173 304.646 9.11351 304.672 9.2181H304.688C304.715 9.11303 304.751 9.01015 304.794 8.9103L305.923 6.5979H307.002V9.90866H306.363V7.52128C306.362 7.37737 306.372 7.23359 306.392 7.09116H306.369C306.345 7.15627 306.276 7.34371 306.209 7.48577L305.007 9.91064H304.348L303.164 7.48577C303.105 7.34568 303.058 7.19573 303.024 7.09116H303.001C303.02 7.23363 303.028 7.3775 303.024 7.52128V9.90866H302.409V6.5979Z"
                    fill="currentColor"></path>
                <path
                    d="M122.917 8.66564C125.968 8.66564 128.441 7.42893 128.441 5.90338C128.441 4.37782 125.968 3.14111 122.917 3.14111C119.866 3.14111 117.392 4.37782 117.392 5.90338C117.392 7.42893 119.866 8.66564 122.917 8.66564Z"
                    fill="currentColor"></path>
            </g>
            <defs>
                <clipPath id="clip0_2093_172">
                    <rect width="307" height="42.5053" fill="white"></rect>
                </clipPath>
            </defs>
        </svg>
    </g>
</svg>